<mxfile host="65bd71144e">
    <diagram id="VrxyGMRX-dzg5zkOl3ms" name="Page-1">
        <mxGraphModel dx="955" dy="620" grid="1" gridSize="10" guides="1" tooltips="1" connect="1" arrows="1" fold="1" page="1" pageScale="1" pageWidth="850" pageHeight="1100" math="0" shadow="0">
            <root>
                <mxCell id="0"/>
                <mxCell id="1" parent="0"/>
                <mxCell id="17" value="&lt;h1&gt;&lt;span&gt;What do I want in V1&lt;/span&gt;&lt;/h1&gt;&lt;div&gt;&lt;span&gt;I want a page to view the ranks of NFT collections that exist within my database&lt;/span&gt;&lt;/div&gt;&lt;div&gt;&lt;span&gt;&lt;br&gt;&lt;/span&gt;&lt;/div&gt;&lt;div&gt;&lt;span&gt;Search Page:&lt;/span&gt;&lt;/div&gt;&lt;div&gt;&lt;ul&gt;&lt;li&gt;&lt;span&gt;Search for NFT collections that have been processed. Search for them by name or contract/address?&lt;/span&gt;&lt;/li&gt;&lt;li&gt;Add a new collection to be processed. Can be done by inputting the contract address&lt;/li&gt;&lt;li&gt;Update a collection. If accuracy is low, user should have the ability to update the collection.&lt;/li&gt;&lt;li&gt;Maybe a &quot;What's hot&quot; section for most searched collections&lt;/li&gt;&lt;li&gt;Collections should be listed on this page under the search bar&lt;/li&gt;&lt;/ul&gt;&lt;div&gt;Collection Details Page:&lt;/div&gt;&lt;/div&gt;&lt;div&gt;&lt;ul&gt;&lt;li&gt;Display the NFTs in the collection with an option of doing it rank sorted order, paginated.&lt;/li&gt;&lt;li&gt;Drop down of each trait type, with values being selectable. Selecting a trait value will display NFTs that contain that trait value&lt;/li&gt;&lt;li&gt;Can search for specific token numbers in a collection&lt;/li&gt;&lt;/ul&gt;&lt;div&gt;Clusters Page:&lt;/div&gt;&lt;/div&gt;&lt;div&gt;&lt;ul&gt;&lt;li&gt;Show collections that are processed for clustering&lt;/li&gt;&lt;li&gt;Search for clustered collection?&lt;/li&gt;&lt;li&gt;A collection that has ranks should have clustering processed. Message queue?&lt;/li&gt;&lt;li&gt;Clicking on a collection should show the list of clusters. These items should show a summary of perfomance for all NFTs within a cluster&lt;/li&gt;&lt;li&gt;Performance data should come from transactions that have occurred in the collection.&amp;nbsp;&lt;/li&gt;&lt;/ul&gt;&lt;div&gt;Clusters Details Page:&lt;/div&gt;&lt;/div&gt;&lt;div&gt;&lt;ul&gt;&lt;li&gt;Shows a list of the NFTs within the cluster&lt;/li&gt;&lt;li&gt;Data metrics of the cluster&lt;/li&gt;&lt;/ul&gt;&lt;/div&gt;&lt;p&gt;&lt;/p&gt;" style="text;html=1;strokeColor=none;fillColor=none;spacing=5;spacingTop=-20;whiteSpace=wrap;overflow=hidden;rounded=0;" parent="1" vertex="1">
                    <mxGeometry x="10" y="410" width="330" height="730" as="geometry"/>
                </mxCell>
                <mxCell id="19" value="We should cache sortedRankings in the API so that we can easily retrieve multiple NFTs whenever we need to&lt;br&gt;&lt;br&gt;Can achieve this more easily with graphql&lt;br&gt;" style="text;html=1;strokeColor=none;fillColor=none;align=center;verticalAlign=middle;whiteSpace=wrap;rounded=0;" parent="1" vertex="1">
                    <mxGeometry x="360" y="740" width="210" height="100" as="geometry"/>
                </mxCell>
                <mxCell id="21" value="&lt;h1&gt;&lt;span&gt;Data for each cluster&lt;/span&gt;&lt;/h1&gt;&lt;div&gt;&lt;ul&gt;&lt;li&gt;Total volume per cluster&lt;/li&gt;&lt;li&gt;&lt;span&gt;Highest Sale&lt;/span&gt;&lt;/li&gt;&lt;li&gt;&lt;span&gt;Lowest Sale&lt;/span&gt;&lt;/li&gt;&lt;li&gt;&lt;span&gt;Total sales per cluster&lt;/span&gt;&lt;br&gt;&lt;/li&gt;&lt;/ul&gt;&lt;/div&gt;" style="text;html=1;strokeColor=none;fillColor=none;spacing=5;spacingTop=-20;whiteSpace=wrap;overflow=hidden;rounded=0;" parent="1" vertex="1">
                    <mxGeometry x="350" y="880" width="280" height="170" as="geometry"/>
                </mxCell>
                <mxCell id="22" value="&lt;h1&gt;&lt;span&gt;How is data refreshed?&lt;/span&gt;&lt;/h1&gt;&lt;div&gt;&lt;ul&gt;&lt;li&gt;Clusters can have a list of transactions&lt;/li&gt;&lt;li&gt;Each cluster has an aggregate data points of the transactions list it contains&lt;/li&gt;&lt;li&gt;When we call a collection that needs to be updated, we should have a separate server handle retrieving new events and updating the clusters in the clusters DB. This should occur when the clusters for a collection have not been updated for at least a day&lt;/li&gt;&lt;/ul&gt;&lt;/div&gt;" style="text;html=1;strokeColor=none;fillColor=none;spacing=5;spacingTop=-20;whiteSpace=wrap;overflow=hidden;rounded=0;" parent="1" vertex="1">
                    <mxGeometry x="620" y="880" width="280" height="220" as="geometry"/>
                </mxCell>
                <mxCell id="23" value="&lt;h1&gt;Data schema for clusters&lt;/h1&gt;&lt;div&gt;{&lt;/div&gt;&lt;div&gt;&lt;span style=&quot;white-space: pre&quot;&gt;&#9;&lt;/span&gt;contractAddress: string&lt;br&gt;&lt;/div&gt;&lt;div&gt;&lt;span style=&quot;white-space: pre&quot;&gt;&#9;&lt;/span&gt;clusters: {&lt;br&gt;&lt;/div&gt;&lt;div&gt;&lt;span style=&quot;white-space: pre&quot;&gt;&#9;&lt;/span&gt;&lt;span style=&quot;white-space: pre&quot;&gt;&#9;&lt;/span&gt;rankAverage: string,&lt;br&gt;&lt;/div&gt;&lt;div&gt;&lt;span style=&quot;white-space: pre&quot;&gt;&#9;&lt;/span&gt;&lt;span style=&quot;white-space: pre&quot;&gt;&#9;&lt;/span&gt;totalVolume: string,&lt;br&gt;&lt;/div&gt;&lt;div&gt;&lt;span style=&quot;white-space: pre&quot;&gt;&#9;&lt;/span&gt;&lt;span style=&quot;white-space: pre&quot;&gt;&#9;&lt;/span&gt;highestSale: string,&lt;br&gt;&lt;/div&gt;&lt;div&gt;&lt;span style=&quot;white-space: pre&quot;&gt;&#9;&lt;/span&gt;&lt;span style=&quot;white-space: pre&quot;&gt;&#9;&lt;/span&gt;lowestSale: string,&lt;br&gt;&lt;/div&gt;&lt;div&gt;&lt;span style=&quot;white-space: pre&quot;&gt;&#9;&lt;/span&gt;&lt;span style=&quot;white-space: pre&quot;&gt;&#9;&lt;/span&gt;totalSales: string,&lt;br&gt;&lt;/div&gt;&lt;div&gt;&lt;span style=&quot;white-space: pre&quot;&gt;&#9;&lt;/span&gt;&lt;span style=&quot;white-space: pre&quot;&gt;&#9;&lt;/span&gt;transactions: [&lt;/div&gt;&lt;div&gt;&lt;span style=&quot;white-space: pre&quot;&gt;&#9;&lt;/span&gt;&lt;span style=&quot;white-space: pre&quot;&gt;&#9;&lt;/span&gt;&lt;span style=&quot;white-space: pre&quot;&gt;&#9;&lt;/span&gt;{&lt;/div&gt;&lt;div&gt;&lt;span style=&quot;white-space: pre&quot;&gt;&#9;&lt;/span&gt;&lt;span style=&quot;white-space: pre&quot;&gt;&#9;&lt;/span&gt;&lt;span style=&quot;white-space: pre&quot;&gt;&#9;&lt;/span&gt;&lt;span style=&quot;white-space: pre&quot;&gt;&#9;&lt;/span&gt;eventTimestamp: string&lt;br&gt;&lt;/div&gt;&lt;div&gt;&lt;span style=&quot;white-space: pre&quot;&gt;&#9;&lt;/span&gt;&lt;span style=&quot;white-space: pre&quot;&gt;&#9;&lt;/span&gt;&lt;span style=&quot;white-space: pre&quot;&gt;&#9;&lt;/span&gt;&lt;span style=&quot;white-space: pre&quot;&gt;&#9;&lt;/span&gt;totalPrice: string&lt;br&gt;&lt;/div&gt;&lt;div&gt;&lt;span style=&quot;white-space: pre&quot;&gt;&#9;&lt;/span&gt;&lt;span style=&quot;white-space: pre&quot;&gt;&#9;&lt;/span&gt;&lt;span style=&quot;white-space: pre&quot;&gt;&#9;&lt;/span&gt;&lt;span style=&quot;white-space: pre&quot;&gt;&#9;&lt;/span&gt;symbol: string&lt;/div&gt;&lt;div&gt;&lt;span style=&quot;white-space: pre&quot;&gt;&#9;&lt;/span&gt;&lt;span style=&quot;white-space: pre&quot;&gt;&#9;&lt;/span&gt;&lt;span style=&quot;white-space: pre&quot;&gt;&#9;&lt;/span&gt;}&lt;/div&gt;&lt;div&gt;&lt;span style=&quot;white-space: pre&quot;&gt;&#9;&lt;/span&gt;&lt;span style=&quot;white-space: pre&quot;&gt;&#9;&lt;/span&gt;],&lt;br&gt;&lt;/div&gt;&lt;div&gt;&lt;span style=&quot;white-space: pre&quot;&gt;&#9;&lt;/span&gt;&lt;span style=&quot;white-space: pre&quot;&gt;&#9;&lt;/span&gt;nfts: [&lt;/div&gt;&lt;div&gt;&lt;span style=&quot;white-space: pre&quot;&gt;&#9;&lt;/span&gt;&lt;span style=&quot;white-space: pre&quot;&gt;&#9;&lt;span style=&quot;white-space: pre&quot;&gt;&#9;&lt;/span&gt;{&lt;/span&gt;&lt;br&gt;&lt;/div&gt;&lt;div&gt;&lt;span style=&quot;white-space: pre&quot;&gt;&#9;&lt;/span&gt;&lt;span style=&quot;white-space: pre&quot;&gt;&#9;&lt;/span&gt;&lt;span style=&quot;white-space: pre&quot;&gt;&#9;&lt;/span&gt;&lt;span style=&quot;white-space: pre&quot;&gt;&#9;&lt;/span&gt;tokenId: string&lt;br&gt;&lt;/div&gt;&lt;div&gt;&lt;span style=&quot;white-space: pre&quot;&gt;&#9;&lt;/span&gt;&lt;span style=&quot;white-space: pre&quot;&gt;&#9;&lt;/span&gt;&lt;span style=&quot;white-space: pre&quot;&gt;&#9;&lt;/span&gt;&lt;span style=&quot;white-space: pre&quot;&gt;&#9;&lt;/span&gt;rank: string&lt;br&gt;&lt;/div&gt;&lt;div&gt;&lt;span style=&quot;white-space: pre&quot;&gt;&#9;&lt;/span&gt;&lt;span style=&quot;white-space: pre&quot;&gt;&#9;&lt;/span&gt;&lt;span style=&quot;white-space: pre&quot;&gt;&#9;&lt;/span&gt;}&lt;br&gt;&lt;/div&gt;&lt;div&gt;&lt;span style=&quot;white-space: pre&quot;&gt;&#9;&lt;/span&gt;&lt;span style=&quot;white-space: pre&quot;&gt;&#9;&lt;/span&gt;]&lt;br&gt;&lt;/div&gt;&lt;div&gt;&lt;span style=&quot;white-space: pre&quot;&gt;&#9;&lt;/span&gt;}&lt;br&gt;&lt;/div&gt;&lt;div&gt;}&lt;/div&gt;" style="text;html=1;strokeColor=none;fillColor=none;spacing=5;spacingTop=-20;whiteSpace=wrap;overflow=hidden;rounded=0;" parent="1" vertex="1">
                    <mxGeometry x="910" y="880" width="310" height="390" as="geometry"/>
                </mxCell>
                <mxCell id="29" value="&lt;h1&gt;&lt;span&gt;What do I want in V2&lt;/span&gt;&lt;/h1&gt;&lt;div&gt;&lt;span&gt;I want a page to view the ranks of NFT collections that exist within my database&lt;/span&gt;&lt;/div&gt;&lt;div&gt;&lt;span&gt;&lt;br&gt;&lt;/span&gt;&lt;/div&gt;&lt;div&gt;Home page:&lt;/div&gt;&lt;div&gt;&lt;ul&gt;&lt;li&gt;Home page the most recent collections&lt;/li&gt;&lt;li&gt;Can search for collections&lt;/li&gt;&lt;li&gt;Can add a new collection&lt;/li&gt;&lt;li&gt;There can be different sections:&lt;/li&gt;&lt;ul&gt;&lt;li&gt;Recently added section&lt;/li&gt;&lt;li&gt;Most viewed section&lt;/li&gt;&lt;/ul&gt;&lt;li&gt;Can retrieve from collections and the clustersAggregate for each collection&lt;/li&gt;&lt;/ul&gt;&lt;/div&gt;&lt;p&gt;&lt;/p&gt;" style="text;html=1;strokeColor=none;fillColor=none;spacing=5;spacingTop=-20;whiteSpace=wrap;overflow=hidden;rounded=0;" parent="1" vertex="1">
                    <mxGeometry x="10" y="1160" width="330" height="800" as="geometry"/>
                </mxCell>
            </root>
        </mxGraphModel>
    </diagram>
</mxfile>